<svg xmlns="http://www.w3.org/2000/svg" viewBox="0 0 64 64" role="img" aria-label="Maxly">
  <rect width="64" height="64" fill="#000000"/>
  <defs>
    <clipPath id="mark">
      <path fill-rule="evenodd" d="M7.04 39.09 C7.28 38.09 8.28 35.59 8.94 34.64 C9.60 33.69 11.48 32.05 12.33 31.47 C13.18 30.89 14.79 30.20 15.71 29.99 C16.64 29.78 18.86 29.70 19.73 29.78 C20.60 29.86 21.32 29.86 22.69 30.63 C24.07 31.40 29.64 35.25 30.73 35.91 C31.82 36.57 30.84 36.41 31.37 35.91 C31.90 35.41 34.54 32.50 34.96 31.89 C35.38 31.28 35.07 31.31 34.75 31.05 C34.43 30.79 33.72 30.15 32.42 29.78 C31.12 29.41 25.95 28.57 24.39 28.09 C22.83 27.61 20.89 26.66 19.94 25.97 C18.99 25.28 17.48 23.20 16.77 22.59 C16.06 21.98 14.79 21.56 14.23 21.11 C13.68 20.66 12.75 19.65 12.33 18.99 C11.91 18.33 11.09 16.61 10.85 15.82 C10.61 15.03 9.89 12.76 10.42 12.65 C10.95 12.54 13.99 14.55 15.08 14.97 C16.16 15.39 17.25 15.82 19.10 16.03 C20.95 16.24 27.74 16.45 29.88 16.66 C32.02 16.87 34.93 17.35 36.23 17.72 C37.53 18.09 39.27 18.92 40.25 19.63 C41.23 20.34 43.11 23.22 44.06 23.43 C45.01 23.64 46.94 21.61 47.86 21.32 C48.78 21.03 50.32 20.71 51.46 21.11 C52.60 21.51 56.62 23.91 56.96 24.49 C57.30 25.07 54.90 25.31 54.21 25.76 C53.52 26.21 52.02 27.51 51.46 28.09 C50.91 28.67 50.41 29.25 49.77 30.41 C49.14 31.57 47.23 36.04 46.38 37.39 C45.53 38.74 43.74 40.54 43.00 41.20 C42.26 41.86 41.15 42.39 40.46 42.68 C39.77 42.97 38.35 43.42 37.50 43.53 C36.65 43.64 34.48 43.61 33.69 43.53 C32.90 43.45 32.18 42.28 31.15 42.89 C30.12 43.50 26.71 47.38 25.44 48.39 C24.17 49.40 22.22 50.56 21.00 50.93 C19.78 51.30 16.74 51.43 15.71 51.35 C14.68 51.27 13.44 50.64 12.75 50.30 C12.06 49.96 10.85 49.29 10.21 48.60 C9.58 47.91 8.07 45.54 7.67 44.80 C7.27 44.06 7.12 43.39 7.04 42.68 C6.96 41.97 6.80 40.10 7.04 39.09 Z M12.96 39.72 C13.10 39.05 13.46 38.52 13.81 38.03 C14.16 37.54 14.38 37.15 15.08 36.76 C15.79 36.37 17.09 35.73 18.04 35.70 C18.99 35.67 20.02 36.23 20.79 36.55 C21.56 36.87 21.84 37.08 22.69 37.61 C23.54 38.14 25.27 39.23 25.87 39.72 C26.47 40.21 26.68 40.04 26.29 40.57 C25.90 41.10 24.53 42.19 23.54 42.89 C22.55 43.59 21.11 44.41 20.37 44.80 C19.63 45.19 19.77 45.15 19.10 45.22 C18.43 45.29 17.06 45.32 16.35 45.22 C15.65 45.12 15.33 44.91 14.87 44.59 C14.41 44.27 13.92 43.74 13.60 43.32 C13.28 42.90 13.07 42.65 12.96 42.05 C12.85 41.45 12.82 40.39 12.96 39.72 Z"/>
    </clipPath>
  </defs>
  <g clip-path="url(#mark)">
    <rect width="64" height="64" fill="#2F6BFF"/>
        <path fill="#2AD4F5" d="M13.81 20.05 C13.75 19.60 14.60 18.81 14.87 18.57 C15.14 18.33 14.80 18.12 15.71 18.36 C16.62 18.60 18.37 19.78 21.21 20.26 C24.05 20.74 33.06 21.38 35.60 21.74 C38.14 22.10 37.80 22.26 38.98 22.80 C40.16 23.34 43.40 25.49 43.85 25.55 C44.30 25.61 43.00 23.95 42.15 23.22 C41.30 22.49 39.01 21.01 37.92 20.47 C36.83 19.93 35.75 19.65 34.54 19.41 C33.33 19.17 30.34 18.96 29.46 18.78 C28.58 18.60 28.43 18.42 28.40 18.15 C28.37 17.88 28.68 17.03 29.25 16.88 C29.82 16.73 31.51 16.97 32.42 17.09 C33.33 17.21 34.57 17.39 35.60 17.72 C36.63 18.05 38.43 18.59 39.61 19.41 C40.79 20.23 42.76 23.10 43.85 23.43 C44.94 23.76 46.29 22.07 47.23 21.74 C48.17 21.41 49.71 21.14 50.40 21.11 C51.09 21.08 51.58 21.11 52.09 21.53 C52.60 21.95 54.39 23.50 54.00 24.07 C53.61 24.64 50.50 24.89 49.35 25.55 C48.20 26.21 46.38 27.90 45.96 28.72 C45.54 29.54 46.38 30.14 46.38 31.26 C46.38 32.38 46.41 35.49 45.96 36.55 C45.51 37.61 43.90 38.33 43.21 38.66 C42.52 38.99 41.28 39.23 41.10 38.87 C40.92 38.51 41.82 36.97 41.94 36.12 C42.06 35.27 42.09 33.80 41.94 32.95 C41.79 32.10 41.39 30.99 40.88 30.20 C40.37 29.41 39.44 28.14 38.35 27.45 C37.26 26.76 35.99 25.91 33.27 25.34 C30.55 24.77 21.88 23.94 19.31 23.43 C16.74 22.92 16.08 22.22 15.29 21.74 C14.50 21.26 13.87 20.50 13.81 20.05 Z"/>
    <path fill="#2AD4F5" d="M7.46 38.24 C7.49 37.67 8.28 36.04 8.73 35.28 C9.18 34.52 10.04 33.52 10.64 32.95 C11.24 32.38 12.14 31.68 12.96 31.26 C13.78 30.84 15.56 30.20 16.35 29.99 C17.14 29.78 17.61 29.69 18.46 29.78 C19.31 29.87 20.82 29.90 22.27 30.63 C23.72 31.36 27.86 34.01 28.62 34.86 C29.38 35.71 27.89 36.31 27.56 36.55 C27.23 36.79 26.68 36.31 26.29 36.55 C25.90 36.79 26.05 38.42 24.81 38.24 C23.57 38.06 19.07 35.70 17.62 35.28 C16.17 34.86 15.47 35.16 14.65 35.28 C13.83 35.40 12.79 35.55 11.91 36.12 C11.03 36.69 9.16 39.00 8.52 39.30 C7.88 39.60 7.43 38.81 7.46 38.24 Z"/>
    <path fill="#2AD4F5" d="M18.89 45.64 C19.01 45.22 20.45 45.16 21.42 44.59 C22.39 44.02 24.02 43.07 25.65 41.62 C27.28 40.17 31.61 35.43 32.85 34.43 C34.09 33.43 34.27 34.28 34.33 34.64 C34.39 35.00 33.30 36.40 33.27 36.97 C33.24 37.54 34.03 38.30 34.12 38.66 C34.21 39.02 34.66 38.60 33.90 39.51 C33.14 40.42 29.71 44.16 28.83 45.01 C27.95 45.86 28.19 45.46 27.77 45.43 C27.35 45.40 26.78 44.50 25.87 44.80 C24.96 45.10 22.18 47.16 21.42 47.55 C20.66 47.94 20.94 47.82 20.58 47.55 C20.22 47.28 18.77 46.06 18.89 45.64 Z"/>
        <path fill="#9B6DFF" d="M11.06 13.07 C11.74 13.14 14.40 14.88 16.35 15.40 C18.30 15.92 22.55 16.26 23.75 16.45 C24.95 16.64 24.11 16.40 24.17 16.66 C24.23 16.92 24.10 17.86 24.17 18.15 C24.24 18.44 24.21 18.47 24.60 18.57 C24.99 18.67 26.29 18.68 26.71 18.78 C27.13 18.88 27.25 19.04 27.35 19.20 C27.45 19.36 27.42 19.64 27.35 19.84 C27.28 20.04 27.54 20.41 26.92 20.47 C26.30 20.53 24.83 20.52 23.33 20.26 C21.83 20.00 18.69 19.33 17.19 18.78 C15.69 18.23 14.41 17.25 13.60 16.66 C12.79 16.07 12.30 15.52 11.91 14.97 C11.52 14.42 10.38 13.00 11.06 13.07 Z"/>
    <path fill="#9B6DFF" d="M47.44 27.66 C47.64 27.07 48.40 26.57 48.92 26.18 C49.44 25.79 50.24 25.39 50.83 25.13 C51.42 24.87 52.01 24.59 52.73 24.49 C53.45 24.39 54.96 24.55 55.48 24.49 C56.00 24.43 55.91 24.07 56.11 24.07 C56.31 24.07 57.27 24.07 56.75 24.49 C56.23 24.91 53.90 25.75 52.73 26.82 C51.56 27.89 49.91 30.98 49.13 31.47 C48.35 31.96 47.91 30.58 47.65 29.99 C47.39 29.40 47.24 28.25 47.44 27.66 Z"/>
  </g>
</svg>
